<?xml version="1.0" encoding="UTF-8"?>
<svg version="1.1" xmlns="http://www.w3.org/2000/svg" width="32" height="32">
<path d="M0 0 C3.09667969 -0.12109375 3.09667969 -0.12109375 6 0 C8.21115568 3.71561654 10.38960387 7.44940108 12.5625 11.1875 C13.19091797 12.24259766 13.81933594 13.29769531 14.46679688 14.38476562 C15.05654297 15.40634766 15.64628906 16.42792969 16.25390625 17.48046875 C17.07870483 18.88655396 17.07870483 18.88655396 17.92016602 20.32104492 C19 23 19 23 18 28 C8.1 28 -1.8 28 -12 28 C-13.1250444 22.37477798 -13.1250444 22.37477798 -11.015625 18.75 C-10.35433594 17.58984375 -10.35433594 17.58984375 -9.6796875 16.40625 C-9.20789063 15.6121875 -8.73609375 14.818125 -8.25 14 C-7.79367188 13.2059375 -7.33734375 12.411875 -6.8671875 11.59375 C-5.98359276 10.06150479 -5.087559 8.53634837 -4.17773438 7.01953125 C-2.88242384 4.86398996 -2.88242384 4.86398996 -1.546875 1.9375 C-1.03640625 1.298125 -0.5259375 0.65875 0 0 Z " fill="#EEB1B7" transform="translate(13,2)"/>
<path d="M0 0 C0.33 0.99 0.66 1.98 1 3 C0.01 3 -0.98 3 -2 3 C-2 4.32 -2 5.64 -2 7 C-1.01 7 -0.02 7 1 7 C1 7.99 1 8.98 1 10 C3.97 10.495 3.97 10.495 7 11 C6.67 9.68 6.34 8.36 6 7 C6.99 7.99 7.98 8.98 9 10 C8.67 10.99 8.34 11.98 8 13 C-1.24 13 -10.48 13 -20 13 C-20.33 12.01 -20.66 11.02 -21 10 C-19.85546875 8.17578125 -19.85546875 8.17578125 -18.1875 6.3125 C-17.64480469 5.68988281 -17.10210937 5.06726563 -16.54296875 4.42578125 C-15 3 -15 3 -13 3 C-12.67 2.01 -12.34 1.02 -12 0 C-8.23620313 -1.8066225 -3.95861815 -0.59379272 0 0 Z " fill="#E38590" transform="translate(22,16)"/>
<path d="M0 0 C0.33 0.99 0.66 1.98 1 3 C0.01 3 -0.98 3 -2 3 C-2 4.32 -2 5.64 -2 7 C-1.01 7 -0.02 7 1 7 C1 7.99 1 8.98 1 10 C-0.32 10 -1.64 10 -3 10 C-3.86625 10.20625 -4.7325 10.4125 -5.625 10.625 C-6.800625 10.810625 -6.800625 10.810625 -8 11 C-8.66 10.34 -9.32 9.68 -10 9 C-10.99 9.33 -11.98 9.66 -13 10 C-13 9.01 -13 8.02 -13 7 C-12.01 7 -11.02 7 -10 7 C-10 5.68 -10 4.36 -10 3 C-10.99 3 -11.98 3 -13 3 C-12.67 2.01 -12.34 1.02 -12 0 C-8.23620313 -1.8066225 -3.95861815 -0.59379272 0 0 Z " fill="#D85769" transform="translate(22,16)"/>
<path d="M0 0 C0.33 0.99 0.66 1.98 1 3 C0.01 3 -0.98 3 -2 3 C-2.33 3.99 -2.66 4.98 -3 6 C-3 5.34 -3 4.68 -3 4 C-3.66 4 -4.32 4 -5 4 C-5 4.66 -5 5.32 -5 6 C-5.66 6 -6.32 6 -7 6 C-7 5.34 -7 4.68 -7 4 C-7.66 4 -8.32 4 -9 4 C-9.33 4.66 -9.66 5.32 -10 6 C-10 5.01 -10 4.02 -10 3 C-10.99 3 -11.98 3 -13 3 C-12.67 2.01 -12.34 1.02 -12 0 C-8.23620313 -1.8066225 -3.95861815 -0.59379272 0 0 Z " fill="#C8132E" transform="translate(22,16)"/>
<path d="M0 0 C2.25 -0.375 2.25 -0.375 5 0 C9 4.97297297 9 4.97297297 9 8 C6.69 8 4.38 8 2 8 C2.33 6.68 2.66 5.36 3 4 C2.01 4 1.02 4 0 4 C0 2.68 0 1.36 0 0 Z " fill="#F6D3D4" transform="translate(20,19)"/>
<path d="M0 0 C0.99 0.66 1.98 1.32 3 2 C5.32387947 2.39387788 7.65793749 2.73486085 10 3 C10 3.33 10 3.66 10 4 C1.42 4 -7.16 4 -16 4 C-16 3.67 -16 3.34 -16 3 C-14.92878906 2.95101563 -13.85757812 2.90203125 -12.75390625 2.8515625 C-11.35674361 2.77654706 -9.9596095 2.7009987 -8.5625 2.625 C-7.85544922 2.5940625 -7.14839844 2.563125 -6.41992188 2.53125 C-4.60760812 2.42719371 -2.80182012 2.22080108 -1 2 C-0.67 1.34 -0.34 0.68 0 0 Z " fill="#F1C0C4" transform="translate(19,24)"/>
<path d="M0 0 C0.99 0.66 1.98 1.32 3 2 C3 2.66 3 3.32 3 4 C3.99 3.67 4.98 3.34 6 3 C6 3.66 6 4.32 6 5 C5.2575 4.835 4.515 4.67 3.75 4.5 C0.80993422 3.88074304 0.80993422 3.88074304 -3 4 C-3 3.01 -3 2.02 -3 1 C-2.01 0.67 -1.02 0.34 0 0 Z " fill="#D13A50" transform="translate(12,22)"/>
</svg>
