<?xml version="1.0" encoding="UTF-8"?>
<svg version="1.1" xmlns="http://www.w3.org/2000/svg" width="32" height="32">
<path d="M0 0 C-0.33 4.29 -0.66 8.58 -1 13 C-1.66 13 -2.32 13 -3 13 C-3.33 12.01 -3.66 11.02 -4 10 C-9.3086849 10.58174845 -9.3086849 10.58174845 -14 13 C-19.55555556 12.44444444 -19.55555556 12.44444444 -21 11 C-23.32817964 10.63239269 -25.6618385 10.29758419 -28 10 C-28.33 12.31 -28.66 14.62 -29 17 C-25.37 16.67 -21.74 16.34 -18 16 C-18 15.34 -18 14.68 -18 14 C-16.68 14 -15.36 14 -14 14 C-14 14.66 -14 15.32 -14 16 C-10.37 16.33 -6.74 16.66 -3 17 C-3 16.01 -3 15.02 -3 14 C-2.34 14 -1.68 14 -1 14 C-0.61936779 16.3260857 -0.28730055 18.66055264 0 21 C-1 22 -1 22 -3.86743164 22.11352539 C-5.11903076 22.10828857 -6.37062988 22.10305176 -7.66015625 22.09765625 C-8.65685585 22.09553383 -8.65685585 22.09553383 -9.6736908 22.09336853 C-11.80333899 22.08775518 -13.93288339 22.07520054 -16.0625 22.0625 C-17.50325369 22.05748671 -18.94400903 22.05292351 -20.38476562 22.04882812 C-23.92321102 22.03778145 -27.46159539 22.02050792 -31 22 C-31.94137255 19.17588235 -32.11725382 17.47081968 -32.09765625 14.55078125 C-32.09443359 13.70322266 -32.09121094 12.85566406 -32.08789062 11.98242188 C-32.07951172 11.10134766 -32.07113281 10.22027344 -32.0625 9.3125 C-32.05798828 8.41982422 -32.05347656 7.52714844 -32.04882812 6.60742188 C-32.03704983 4.40488013 -32.02060164 2.20247401 -32 0 C-19.81812499 -4.44886658 -12.03502605 -4.46460644 0 0 Z M-29 3 C-29 4.65 -29 6.3 -29 8 C-24.9696972 8.34646126 -24.9696972 8.34646126 -21 8 C-18.4595774 5.66169042 -18.4595774 5.66169042 -17 3 C-17.33 2.34 -17.66 1.68 -18 1 C-22.08378077 1 -25.12315913 1.80712589 -29 3 Z M-14 1 C-14.33 1.99 -14.66 2.98 -15 4 C-13.50520579 6.16658535 -13.50520579 6.16658535 -11 8 C-8.24128373 8.35800135 -5.79902476 8.18660165 -3 8 C-3 6.35 -3 4.7 -3 3 C-6.87684087 1.80712589 -9.91621923 1 -14 1 Z M-30 19 C-30 19.33 -30 19.66 -30 20 C-20.76 20 -11.52 20 -2 20 C-2 19.67 -2 19.34 -2 19 C-11.24 19 -20.48 19 -30 19 Z " fill="#C4001D" transform="translate(32,7)"/>
</svg>
