<?xml version="1.0" encoding="UTF-8"?>
<svg version="1.1" xmlns="http://www.w3.org/2000/svg" width="32" height="32">
<path d="M0 0 C1.98 0 3.96 0 6 0 C6.33 0.99 6.66 1.98 7 3 C8.11375 2.95875 9.2275 2.9175 10.375 2.875 C14 3 14 3 16 5 C16.125 8.625 16.125 8.625 16 12 C16.99 12.33 17.98 12.66 19 13 C19 14.98 19 16.96 19 19 C18.01 19.33 17.02 19.66 16 20 C16.04125 21.11375 16.0825 22.2275 16.125 23.375 C16 27 16 27 14 29 C10.375 29.125 10.375 29.125 7 29 C6.67 29.99 6.34 30.98 6 32 C4.02 32 2.04 32 0 32 C-0.33 31.01 -0.66 30.02 -1 29 C-2.670625 29.061875 -2.670625 29.061875 -4.375 29.125 C-8 29 -8 29 -10 27 C-10.125 23.375 -10.125 23.375 -10 20 C-10.99 19.67 -11.98 19.34 -13 19 C-13 17.02 -13 15.04 -13 13 C-12.01 12.67 -11.02 12.34 -10 12 C-10.04125 10.88625 -10.0825 9.7725 -10.125 8.625 C-10 5 -10 5 -8 3 C-4.375 2.875 -4.375 2.875 -1 3 C-0.67 2.01 -0.34 1.02 0 0 Z M-3 10 C-5.06196218 12.2140989 -5.06196218 12.2140989 -6 15 C-5.23960803 18.80195984 -4.23036592 21.72677954 -1 24 C2.17695135 25.17045576 3.48883261 25.21907174 6.625 23.875 C9.34712589 21.72595325 10.72105706 20.23497332 12 17 C11.23960803 13.19804016 10.23036592 10.27322046 7 8 C2.67106404 6.40512886 0.56928197 7.18214581 -3 10 Z " fill="#C4001E" transform="translate(13,0)"/>
<path d="M0 0 C0.99 0.33 1.98 0.66 3 1 C3.33 3.64 3.66 6.28 4 9 C0.125 8.125 0.125 8.125 -1 7 C-1.125 4 -1.125 4 -1 1 C-0.67 0.67 -0.34 0.34 0 0 Z " fill="#C20019" transform="translate(15,10)"/>
</svg>
